# Blender v3.0.1 OBJ File: ''
# www.blender.org
mtllib art.mtl
o Cube
v 0.573569 0.778566 -0.918088
v 1.401652 -1.294410 -1.344623
v 0.451075 0.451075 0.451075
v 1.000000 -1.000000 1.000000
v -1.806530 1.806530 -1.806530
v -1.000000 -1.000000 -1.000000
v -1.000000 1.000000 1.000000
v -0.438259 -0.438259 0.438259
vt 0.625000 0.500000
vt 0.875000 0.750000
vt 0.625000 0.750000
vt 0.375000 1.000000
vt 0.375000 0.750000
vt 0.625000 0.000000
vt 0.375000 0.250000
vt 0.375000 0.000000
vt 0.375000 0.500000
vt 0.125000 0.750000
vt 0.125000 0.500000
vt 0.875000 0.500000
vt 0.625000 1.000000
vt 0.625000 0.250000
vn 0.4231 0.8720 0.2464
vn -0.2652 0.2518 0.9307
vn -0.7410 -0.4749 0.4749
vn -0.0581 -0.9220 0.3828
vn 0.9156 0.3873 0.1082
vn -0.1220 0.1531 -0.9807
vn 0.3368 0.9262 0.1694
vn 0.2518 -0.2652 0.9307
vn -0.9536 -0.2129 0.2129
vn -0.3805 -0.9234 0.0508
vn 0.9273 0.3368 0.1635
vn 0.2684 -0.1940 -0.9436
usemtl Material
s off
f 1/1/1 7/2/1 3/3/1
f 3/3/2 8/4/2 4/5/2
f 7/6/3 6/7/3 8/8/3
f 2/9/4 8/10/4 6/11/4
f 2/9/5 3/3/5 4/5/5
f 6/7/6 1/1/6 2/9/6
f 1/1/7 5/12/7 7/2/7
f 3/3/8 7/13/8 8/4/8
f 7/6/9 5/14/9 6/7/9
f 2/9/10 4/5/10 8/10/10
f 2/9/11 1/1/11 3/3/11
f 6/7/12 5/14/12 1/1/12
