# Blender v3.0.1 OBJ File: ''
# www.blender.org
mtllib bent cube.mtl
o Cube
v -0.220894 1.401798 -1.008952
v 0.506292 -0.364429 -1.617212
v 1.077089 0.572703 0.564508
v 1.680254 -0.451525 -0.002579
v -1.677276 0.447895 -0.005534
v -0.946557 -1.311298 -0.620318
v -0.493629 0.376915 1.632271
v 0.222797 -1.396191 0.999163
vt 0.625000 0.500000
vt 0.875000 0.500000
vt 0.875000 0.750000
vt 0.625000 0.750000
vt 0.375000 0.750000
vt 0.625000 1.000000
vt 0.375000 1.000000
vt 0.375000 0.000000
vt 0.625000 0.000000
vt 0.625000 0.250000
vt 0.375000 0.250000
vt 0.125000 0.500000
vt 0.375000 0.500000
vt 0.125000 0.750000
vn -0.1144 0.9301 0.3491
vn 0.5814 -0.0734 0.8103
vn -0.7245 -0.4737 0.5007
vn 0.3606 -0.8804 -0.3081
vn 0.7377 0.5286 -0.4200
vn -0.5837 0.0400 -0.8110
usemtl Material
s off
f 1/1/1 5/2/1 7/3/1 3/4/1
f 4/5/2 3/4/2 7/6/2 8/7/2
f 8/8/3 7/9/3 5/10/3 6/11/3
f 6/12/4 2/13/4 4/5/4 8/14/4
f 2/13/5 1/1/5 3/4/5 4/5/5
f 6/11/6 5/10/6 1/1/6 2/13/6
